<svg xmlns="http://www.w3.org/2000/svg" version="1.1" xmlns:xlink="http://www.w3.org/1999/xlink" xmlns:svgjs="http://svgjs.dev/svgjs" viewBox="0 0 1422 800"><defs><linearGradient x1="50%" y1="0%" x2="50%" y2="100%" id="ssscribble-grad"><stop stop-color="hsl(206, 75%, 49%)" stop-opacity="1" offset="0%"></stop><stop stop-color="hsl(331, 90%, 56%)" stop-opacity="1" offset="100%"></stop></linearGradient></defs><g fill="none" stroke-width="2.5" stroke="url(#ssscribble-grad)" stroke-linecap="round"><path d="M1158.58 680.1C1280.9 703.57 1175.95 748.02 934.92 803.23 664.14 851.28 486.64 895.88 431.95 919.72 479.96 916.56 577.73 873.56 660.9 784.46 753.57 668.56 794.42 523.01 770.95 372.8 747.47 253.37 661.91 180.64 528.56 157.51 404.71 181.34 270.31 235.24 191.54 298.11 215.46 375.99 368.07 439.83 621.64 477.71 845.46 515.33 940.9 524.47 818.58 501 534.81 477.53 269.94 423.67 157.83 345.36 221.1 266.81 414.38 166.34 630.08 57.7 835.69 -35.92 966.59 -114.72 1031.58 -155.76 1065 -149.83 1080.53 -86.62 1104 32.8 1127.46 183.01 1156.66 338.07 1163.94 471.17 1139.64 577.48 1045.39 645.37 870.56 679.3 685.61 686.23 517.21 678.26 471.11 670.88 600.37 656.35 874.71 656.62 1158.48 680.09Q1158.58 680.1 1158.58 680.1" opacity="0.81"></path><path d="M1124.48 790.45C1240.66 809.23 1208.72 831.91 1065.54 852.64 856.56 867.95 656.17 871.63 511.8 855.22 416.43 823.24 380.2 762.87 374.59 674.3 389.37 574.48 396.86 457.59 378.08 338.79 359.3 239.78 316.04 169.22 268.71 130.28 241.78 121.19 248.7 134.98 319.46 160.42 439.22 200.41 619.69 237.19 814.91 260.42 944.33 286.25 968.66 292.56 852.48 273.78 631.09 255.01 402.81 212.92 249.54 154.54 192.75 98.77 243.73 32.68 356.32 -31.91 511.79 -81.96 657.56 -115.66 764.31 -120.34 865.48 -95.16 926.29 -32.21 945.07 66.79 963.85 185.59 938.82 310.09 870.18 423.68 795.98 526.01 679.52 606.29 548.66 662.88 460.68 703.9 429.61 729.53 500.17 746.76 667.2 758.57 903.09 771.67 1124.48 790.45Q1124.48 790.45 1124.48 790.45" opacity="0.57"></path><path d="M1090.58 774.7C1209.36 802.87 1022.72 794.46 771.32 731.91 524.25 644.15 397.2 486.74 369.03 304.8 340.86 166.93 416.91 94.81 627.07 77.7 841.56 98.87 1005.36 115.51 886.58 87.35 540.52 59.18 279.14 -8.45 239.75 -66.54 346.73 -86.35 488.06 -37.06 516.23 100.8 544.39 282.74 454.07 462.98 384 587.66 460.31 687.12 744.52 746.53 1090.58 774.7Q1090.58 774.7 1090.58 774.7" opacity="0.35"></path><path d="M1056.48 637.91C1139.55 675.47 791.78 516.23 754.23 270.79 716.67 102.53 1003.55 39.44 920.48 1.88 456.5 -35.66 274.44 -33.46 312 134.79 349.55 380.23 592.5 600.36 1056.48 637.91Q1056.48 637.91 1056.48 637.91" opacity="0.75"></path></g></svg>